HIERARCHY
ROOT Hips
{
    OFFSET 0.000000 0.000000 0.000000
    CHANNELS 6 Xposition Yposition Zposition Zrotation Xrotation Yrotation
    JOINT Spine
    {
        OFFSET -0.000000 0.081317 0.000000
        CHANNELS 3 Zrotation Xrotation Yrotation
        JOINT Spine1
        {
            OFFSET -0.000000 0.225200 0.000000
            CHANNELS 3 Zrotation Xrotation Yrotation
            JOINT Neck
            {
                OFFSET -0.000000 0.224275 0.020389
                CHANNELS 3 Zrotation Xrotation Yrotation
                JOINT Head
                {
                    OFFSET -0.000000 0.138833 -0.019833
                    CHANNELS 3 Zrotation Xrotation Yrotation
                    End Site
                    {
                        OFFSET -0.000000 0.198333 0.000000
                    }
                }
            }
            JOINT LeftShoulder
            {
                OFFSET 0.039732 0.208237 -0.000812
                CHANNELS 3 Zrotation Xrotation Yrotation
                JOINT LeftArm
                {
                    OFFSET 0.110955 0.000000 0.000000
                    CHANNELS 3 Zrotation Xrotation Yrotation
                    JOINT LeftForeArm
                    {
                        OFFSET 0.324523 0.000000 0.000000
                        CHANNELS 3 Zrotation Xrotation Yrotation
                        JOINT LeftHand
                        {
                            OFFSET 0.302601 0.000000 0.000000
                            CHANNELS 3 Zrotation Xrotation Yrotation
                            End Site
                            {
                                OFFSET 0.148750 0.000000 0.000000
                            }
                        }
                    }
                }
            }
            JOINT RightShoulder
            {
                OFFSET -0.039598 0.208237 -0.000812
                CHANNELS 3 Zrotation Xrotation Yrotation
                JOINT RightArm
                {
                    OFFSET -0.110955 0.000000 0.000000
                    CHANNELS 3 Zrotation Xrotation Yrotation
                    JOINT RightForeArm
                    {
                        OFFSET -0.324523 0.000000 0.000000
                        CHANNELS 3 Zrotation Xrotation Yrotation
                        JOINT RightHand
                        {
                            OFFSET -0.302601 0.000000 0.000000
                            CHANNELS 3 Zrotation Xrotation Yrotation
                            End Site
                            {
                                OFFSET -0.148750 0.000000 0.000000
                            }
                        }
                    }
                }
            }
        }
    }
    JOINT LeftUpLeg
    {
        OFFSET 0.099167 0.000000 0.000000
        CHANNELS 3 Zrotation Xrotation Yrotation
        JOINT LeftLeg
        {
            OFFSET -0.000000 -0.380753 0.000000
            CHANNELS 3 Zrotation Xrotation Yrotation
            JOINT LeftFoot
            {
                OFFSET -0.000000 -0.440093 0.000000
                CHANNELS 3 Zrotation Xrotation Yrotation
                JOINT LeftToeBase
                {
                    OFFSET -0.000000 -0.064458 0.148750
                    CHANNELS 3 Zrotation Xrotation Yrotation
                    End Site
                    {
                        OFFSET -0.000000 0.000000 0.039667
                    }
                }
            }
        }
    }
    JOINT RightUpLeg
    {
        OFFSET -0.099167 0.000000 0.000000
        CHANNELS 3 Zrotation Xrotation Yrotation
        JOINT RightLeg
        {
            OFFSET -0.000000 -0.380753 0.000000
            CHANNELS 3 Zrotation Xrotation Yrotation
            JOINT RightFoot
            {
                OFFSET -0.000000 -0.440093 0.000000
                CHANNELS 3 Zrotation Xrotation Yrotation
                JOINT RightToeBase
                {
                    OFFSET -0.000000 -0.064458 0.148750
                    CHANNELS 3 Zrotation Xrotation Yrotation
                    End Site
                    {
                        OFFSET -0.000000 0.000000 0.039667
                    }
                }
            }
        }
    }
}
MOTION
Frames:    8
Frame Time:    0.010000
-0.461638    0.870663    -0.183910    -0.412171    2.601420    -34.550255    0.958537    -23.221970    -5.034736    -0.862839    32.566788    -1.486121    -9.136573    20.063324    23.200493    -12.863432    -3.748694    21.679876    -14.259366    -0.024474    -15.401948    -53.910114    13.346157    -21.687267    -0.133654    -43.289734    -79.638084    -4.594620    -43.007656    -12.348726    9.363429    -1.592470    12.500679    32.952595    66.051956    10.001272    -11.517825    -24.912739    84.460152    38.739182    -16.798742    -5.197180    26.433792    -14.107915    40.722816    0.466340    29.819160    36.951065    2.282324    24.291872    -43.221836    0.000000    0.000000    0.000000    -16.950651    -14.129992    -17.891727    6.217837    35.025242    0.449012    0.400772    7.518798    -4.239752    0.000000    0.000000    0.000000    
-0.461647    0.870429    -0.184122    -0.413750    2.594088    -34.534851    0.965655    -23.242178    -5.020253    -0.894515    32.614090    -1.472125    -9.085309    20.060358    23.184666    -12.932258    -3.693893    21.660122    -14.277710    -0.007036    -15.386383    -53.891640    13.349585    -21.694725    -0.117973    -43.274677    -79.597549    -4.589090    -42.983624    -12.338201    9.357853    -1.603817    12.500131    33.023129    66.034058    9.926057    -11.528994    -24.892246    84.498367    38.417244    -16.756504    -5.232580    26.441465    -14.146665    40.733994    0.634817    29.812252    36.525517    2.038697    24.559486    -43.140194    0.000000    0.000000    0.000000    -16.986116    -14.236565    -17.920391    6.028393    35.217548    0.848597    0.748182    7.531610    -4.204946    0.000000    0.000000    0.000000    
-0.461654    0.870176    -0.184305    -0.419941    2.574433    -34.516109    0.972177    -23.245401    -5.011901    -0.929534    32.659245    -1.459167    -9.077342    20.076109    23.173248    -12.967435    -3.699531    21.640585    -14.300129    0.004023    -15.372663    -53.891178    13.347672    -21.692707    -0.023033    -43.268330    -79.499855    -4.807452    -42.897064    -12.498183    9.347521    -1.614821    12.503721    33.098461    66.034935    9.846127    -11.551298    -24.876537    84.457680    38.735771    -16.736273    -5.212316    26.466858    -14.182812    40.737057    0.654913    29.892300    36.493435    2.006923    24.523043    -43.143639    0.000000    0.000000    0.000000    -16.984201    -14.195101    -17.945234    6.211453    35.198242    0.459877    0.393364    7.384450    -4.223634    0.000000    0.000000    0.000000    
-0.461659    0.869935    -0.184496    -0.428033    2.557022    -34.501793    0.984323    -23.248772    -4.997646    -0.973358    32.711498    -1.441918    -9.029944    20.014023    23.165737    -13.006906    -3.598038    21.644825    -14.300570    0.023790    -15.363204    -53.888363    13.354342    -21.701830    0.005995    -43.277222    -79.471909    -4.872309    -42.882763    -12.509638    9.344444    -1.622212    12.495205    33.128979    66.039627    9.812161    -11.530501    -24.868298    84.475449    38.655468    -16.757114    -5.266257    26.494236    -14.218293    40.737083    0.675053    29.973972    36.454578    1.968161    24.482960    -43.131321    0.000000    0.000000    0.000000    -17.021578    -14.292371    -17.975658    6.020335    35.398548    0.871017    0.719046    7.405018    -4.212064    0.000000    0.000000    0.000000    
-0.461669    0.869676    -0.184669    -0.439494    2.526115    -34.487743    0.989021    -23.240236    -4.991490    -1.006580    32.770866    -1.429888    -9.015313    19.981613    23.162916    -13.046202    -3.544024    21.644875    -14.329750    0.025764    -15.368876    -53.892117    13.334904    -21.677004    -0.019753    -43.263351    -79.484306    -4.825458    -42.887398    -12.539820    9.335263    -1.634595    12.503728    33.171761    66.053123    9.767326    -11.594099    -24.881275    84.447411    38.741383    -16.723810    -5.266412    26.515686    -14.238987    40.719967    0.687586    30.051132    36.420769    1.901186    24.469345    -43.097076    0.000000    0.000000    0.000000    -17.055031    -14.290603    -17.986834    6.022458    35.490578    0.883984    0.711509    7.291161    -4.151847    0.000000    0.000000    0.000000    
-0.461648    0.869393    -0.184862    -0.441973    2.501052    -34.483406    1.017486    -23.246008    -4.968767    -1.095078    32.852699    -1.397399    -8.986772    19.903824    23.165762    -13.045678    -3.467842    21.664341    -14.325868    0.020606    -15.379097    -53.884972    13.319774    -21.661921    -0.020228    -43.260986    -79.496483    -4.734832    -42.895203    -12.456582    9.351853    -1.637696    12.504514    33.146610    66.074455    9.787342    -11.610968    -24.912191    84.435501    38.719063    -16.751341    -5.292627    26.551018    -14.274282    40.721786    0.560187    30.210667    36.812019    2.079454    24.107119    -43.198620    0.000000    0.000000    0.000000    -17.082821    -14.327000    -18.001629    6.019070    35.594437    0.903364    0.730033    7.204350    -4.156034    0.000000    0.000000    0.000000    
-0.461599    0.869121    -0.185044    -0.435246    2.464683    -34.477680    1.035003    -23.245050    -4.951292    -1.178185    32.932373    -1.367489    -9.003082    19.833044    23.174181    -13.011502    -3.407917    21.691126    -14.340301    0.018384    -15.394751    -53.863022    13.302390    -21.648794    0.009579    -43.279587    -79.474304    -4.715069    -42.897247    -12.460025    9.352691    -1.638232    12.503375    33.116547    66.061401    9.830073    -11.649011    -24.915462    84.411201    38.816383    -16.726419    -5.280957    26.545776    -14.292922    40.698200    0.562589    30.272785    36.803364    2.026078    24.081116    -43.164707    0.000000    0.000000    0.000000    -17.126446    -14.366839    -18.008553    6.026482    35.702789    0.898555    0.672710    7.148126    -4.150344    0.000000    0.000000    0.000000    
-0.461558    0.868841    -0.185224    -0.432351    2.424662    -34.475182    1.065623    -23.241102    -4.929467    -1.292978    33.023705    -1.327364    -8.998276    19.723726    23.188311    -12.962770    -3.304352    21.735214    -14.341004    0.011703    -15.393958    -53.840206    13.296428    -21.648680    0.130086    -43.301994    -79.384560    -4.879122    -42.829594    -12.582057    9.367791    -1.629201    12.504916    33.054813    66.052849    9.906416    -11.665276    -24.935604    84.426971    38.466057    -16.717291    -5.293520    26.542738    -14.303927    40.664104    0.555924    30.335518    36.807037    1.979420    24.024372    -43.143013    0.000000    0.000000    0.000000    -17.147936    -14.326676    -17.991570    6.223302    35.695225    0.516545    0.368425    6.993222    -4.186982    0.000000    0.000000    0.000000    
